<?xml version="1.0" encoding="utf-8"?>
<!-- Generator: Adobe Illustrator 16.0.4, SVG Export Plug-In . SVG Version: 6.00 Build 0)  -->
<!DOCTYPE svg PUBLIC "-//W3C//DTD SVG 1.1//EN" "http://www.w3.org/Graphics/SVG/1.1/DTD/svg11.dtd">
<svg version="1.1" id="Layer_1" xmlns="http://www.w3.org/2000/svg" xmlns:xlink="http://www.w3.org/1999/xlink" x="0px" y="0px"
	 width="228px" height="362px" viewBox="0 0 228 362" enable-background="new 0 0 228 362" xml:space="preserve">
<g>
	<path fill="#FFFFFF" d="M169.708,71.68c7.257,0,13.72,0,20.718,0c0,94.93,0,189.353,0,284.663c-6.531,0-13.237,0-20.718,0
		C169.708,261.924,169.708,167.23,169.708,71.68z"/>
	<path fill="#FFFFFF" d="M157.214,279.724c-7.203,0-13.666,0-20.684,0c0-91.518,0-182.543,0-274.066c7.002,0,13.461,0,20.684,0
		C157.214,96.755,157.214,187.781,157.214,279.724z"/>
	<path fill="#FFFFFF" d="M4.691,71.664c7.222,0,13.682,0,20.686,0c0,69.517,0,138.542,0,208.057c-7.011,0-13.47,0-20.686,0
		C4.691,210.606,4.691,141.584,4.691,71.664z"/>
	<path fill="#FFFFFF" d="M58.194,279.724c-7.203,0-13.663,0-20.68,0c0-69.511,0-138.536,0-208.053c6.999,0,13.461,0,20.68,0
		C58.194,140.759,58.194,209.784,58.194,279.724z"/>
	<path fill="#FFFFFF" d="M70.71,71.658c7.2,0,13.659,0,20.68,0c0,69.511,0,138.537,0,208.056c-6.999,0-13.458,0-20.68,0
		C70.71,210.622,70.71,141.597,70.71,71.658z"/>
	<path fill="#FFFFFF" d="M124.223,279.704c-7.26,0-13.719,0-20.714,0c0-69.265,0-138.019,0-207.652c6.542,0,13.253,0,20.714,0
		C124.223,140.803,124.223,209.828,124.223,279.704z"/>
	<path fill="#FFFFFF" d="M202.468,279.601c0-69.297,0-138.051,0-207.615c6.725,0,13.43,0,20.841,0c0,68.956,0,137.981,0,207.615
		C216.642,279.601,210.172,279.601,202.468,279.601z"/>
</g>
<g>
</g>
<g>
</g>
<g>
</g>
<g>
</g>
<g>
</g>
<g>
</g>
<g>
</g>
<g>
</g>
<g>
</g>
<g>
</g>
<g>
</g>
<g>
</g>
<g>
</g>
<g>
</g>
<g>
</g>
</svg>
