<?xml version="1.0" encoding="utf-8"?>
<!-- Generator: Adobe Illustrator 16.0.4, SVG Export Plug-In . SVG Version: 6.00 Build 0)  -->
<!DOCTYPE svg PUBLIC "-//W3C//DTD SVG 1.1//EN" "http://www.w3.org/Graphics/SVG/1.1/DTD/svg11.dtd">
<svg version="1.1" id="Layer_1" xmlns="http://www.w3.org/2000/svg" xmlns:xlink="http://www.w3.org/1999/xlink" x="0px" y="0px"
	 width="397.502px" height="146.692px" viewBox="0 0 397.502 146.692" enable-background="new 0 0 397.502 146.692"
	 xml:space="preserve">
<path fill="#231F20" d="M156.287,72.119c-0.873-2.793-3.841-9.604-5.587-11.176c-1.747-1.571-1.222-1.396-1.222-1.396l-0.176-21.479
	c0,0-6.46-0.698-8.73-1.921c-2.27-1.222-6.112-2.968-8.557-2.619s-8.207,2.969-11.7,2.27s-5.239-0.524-7.509-0.349
	c-2.27,0.174-5.763,0.873-8.033,0.174c-2.27-0.698-6.461-3.492-8.557-3.667c-2.095-0.175-4.191-0.524-6.46-1.572
	c-2.271-1.048-2.794-2.968-4.889-2.619c-2.096,0.349-6.112-2.27-6.112-2.27V0.175L43.307,0v61.467H0c0,0,0.349,2.097,1.397,2.794
	c1.047,0.698,5.938,5.588,9.779,9.43c3.842,3.843,9.43,7.16,9.43,7.16s0.874,4.365,1.397,6.461
	c0.524,2.096,3.493,8.906,5.588,10.826c2.095,1.92,4.889,1.746,6.985,3.145c2.095,1.395,4.191,2.617,5.937,2.967
	s3.317-2.793,4.365-4.191c1.047-1.396-0.349-4.715,2.095-5.412c2.445-0.699,3.316-1.408,4.017-1.572
	c0.784-0.184,1.827-0.33,2.965-0.422c1.791,2.727,4.339,4.834,7.439,6.18c2.34,1.023,4.979,1.641,7.898,1.912
	c2.146,3.127,5.646,10.998,7.018,13.285c1.571,2.619,5.762,9.43,7.334,9.779c1.571,0.35,1.571,4.016,2.445,5.764
	c0.873,1.744,3.667,8.205,4.017,9.08c0.349,0.871,0.523,1.396,0.523,1.396s3.493,0.35,5.064,1.223s4.191,1.57,6.636,2.27
	s8.382,3.318,10.827,3.143c2.445-0.174,4.54-0.523,3.493-1.57c-1.048-1.049-3.493-9.43-3.143-13.271
	c0.349-3.844,2.619-15.717,4.889-16.416c2.27-0.697,8.731-5.586,12.398-7.508c3.667-1.922,12.398-11.002,15.018-12.225
	c2.62-1.221,7.159-2.969,8.207-4.189c1.048-1.223,2.445-4.891,1.921-7.684C155.415,81.025,157.161,74.914,156.287,72.119z
	 M96.775,50.038c-2.276,0.444-3.779,0.986-4.51,1.628s-1.097,2.118-1.097,4.428v22.975c0,6.104-1.471,10.817-4.413,14.138
	s-7.563,4.98-13.866,4.98c-2.428,0-4.625-0.219-6.601-0.648c0.005,0.006,0.01,0.01,0.016,0.016c-3.887-0.84-6.907-2.504-9.048-4.998
	c0.004,0,0.008,0,0.013,0c-0.473-0.551-0.905-1.139-1.292-1.77c-1.611-2.619-2.416-5.998-2.416-10.139V56.617
	c0-2.705-0.358-4.409-1.073-5.11c-0.715-0.699-2.327-1.189-4.833-1.47v-1.794h24.223v1.794c-2.771,0.094-4.624,0.526-5.556,1.296
	c-0.932,0.77-1.396,2.532-1.396,5.284v24.047c0,3.651,0.432,6.472,1.296,8.462c1.565,3.699,4.569,5.547,9.01,5.547
	c5.515,0,9.243-2.047,11.183-6.141c1.075-2.242,1.612-5.389,1.612-9.434V57.141c0-2.578-0.472-4.354-1.416-5.327
	c-0.943-0.972-2.789-1.564-5.537-1.776v-1.794h15.701V50.038z M140.196,62.748c-0.677-5.189-2.615-8.7-5.814-10.531
	c-1.798-1.009-4.481-1.561-8.054-1.656v37.823c0,2.643,0.462,4.396,1.388,5.262c0.927,0.865,2.856,1.299,5.789,1.299v1.822H107.86
	v-1.822c2.825,0,4.703-0.439,5.633-1.316c0.93-0.875,1.395-2.625,1.395-5.244V50.561c-3.502,0.095-6.188,0.646-8.055,1.656
	c-3.432,1.878-5.37,5.389-5.814,10.531h-2.056l0.07-14.504h43.149l0.07,14.504H140.196z M204.865,55.325
	c-4.654-4.721-11.414-7.082-20.278-7.082h-21.966v1.794c1.913,0.166,3.258,0.462,4.038,0.888c1.346,0.732,2.019,2.031,2.019,3.897
	v35.364c0,1.938-0.709,3.273-2.125,4.006c-0.804,0.4-2.113,0.66-3.931,0.779v1.795h22.702c8.209,0,14.712-2.537,19.507-7.609
	c4.258-4.51,6.387-10.014,6.387-16.512C211.217,65.399,209.1,59.626,204.865,55.325z M194.632,89.863
	c-2.733,3.008-6.225,4.512-10.476,4.512c-1.565,0-2.587-0.328-3.067-0.984c-0.479-0.654-0.754-1.719-0.823-3.193V54.813
	c0-1.474,0.186-2.468,0.56-2.983c0.562-0.795,1.776-1.194,3.646-1.194c5.652,0,9.669,2.937,12.052,8.81
	c1.475,3.652,2.209,8.017,2.209,13.095C198.732,81.083,197.365,86.855,194.632,89.863z M349.611,94.677
	c-0.635,0.264-1.963,0.438-3.984,0.52v1.57h20.111v-1.57c-1.416,0.039-2.508-0.475-3.277-1.543c-0.768-1.068-1.93-3.445-3.488-7.133
	l-13.861-32.67h-1.791l-13.756,34.045c-1.096,2.707-1.938,4.461-2.523,5.254c-0.914,1.262-2.121,1.945-3.621,2.047v1.57h12.713
	v-1.57c-1.422-0.021-2.488-0.143-3.199-0.367c-1.195-0.406-1.793-1.059-1.793-1.955c0-0.734,0.273-1.904,0.82-3.516
	c0.268-0.752,0.867-2.371,1.799-4.854h13.889l1.602,3.787c0.348,0.836,0.627,1.551,0.834,2.141c0.32,0.998,0.484,1.74,0.484,2.229
	C350.568,93.742,350.25,94.414,349.611,94.677z M334.676,82.039l5.639-14.356h0.438l5.932,14.356H334.676z M397.502,84.617
	c0-3.356-1.139-6.208-3.41-8.556c-1.217-1.254-2.85-2.397-4.896-3.43l-4.594-2.31c-3.838-1.923-6.307-3.382-7.404-4.376
	c-1.119-0.971-1.676-2.44-1.676-4.405c0-1.641,0.596-3.032,1.797-4.177c1.199-1.145,2.83-1.717,4.893-1.717
	c2.934,0,5.426,1.143,7.479,3.425c2.049,2.282,3.484,5.004,4.297,8.164h1.721V53.702h-1.871c-0.158,0.618-0.367,1.116-0.627,1.492
	c-0.258,0.376-0.727,0.564-1.402,0.564c-0.297,0-1.496-0.343-3.596-1.028c-2.102-0.684-4.275-1.028-6.525-1.028
	c-4.418,0-7.695,1.316-9.836,3.95c-2.141,2.633-3.209,5.469-3.209,8.506c0,2.857,0.809,5.256,2.424,7.2
	c1.613,1.947,4.381,3.911,8.301,5.896l3.947,2.005c2.453,1.235,4.084,2.239,4.887,3.009c1.215,1.176,1.826,2.693,1.826,4.559
	c0,1.602-0.584,3.123-1.746,4.572c-1.164,1.449-3.125,2.174-5.885,2.174c-2.84,0-5.357-1.057-7.557-3.17
	c-2.199-2.109-3.791-5.49-4.777-10.14h-1.795v15.401h1.795c0.18-0.656,0.389-1.162,0.627-1.52c0.238-0.359,0.678-0.535,1.312-0.535
	c0.18,0,0.396,0.023,0.656,0.072c0.258,0.049,0.527,0.109,0.807,0.186l1.191,0.436c1.232,0.465,2.48,0.807,3.742,1.027
	c1.266,0.223,2.512,0.334,3.744,0.334c5.367,0,9.27-1.391,11.707-4.172C396.283,90.71,397.502,87.753,397.502,84.617z
	 M283.176,82.637c-1.84,4.806-4.033,8.036-6.57,9.694c-2.537,1.662-5.68,2.49-9.42,2.49c-2.086,0-3.486-0.223-4.205-0.668
	c-0.717-0.449-1.076-1.363-1.076-2.746V61.926c0-2.458,0.422-3.999,1.268-4.624c0.848-0.625,2.541-0.978,5.09-1.059v-1.57h-21.686
	v1.57c1.766,0.102,2.984,0.345,3.66,0.73c1.15,0.628,1.725,1.856,1.725,3.681v30.159c0,1.826-0.607,3.064-1.814,3.713
	c-0.67,0.361-1.779,0.576-3.295,0.652c-1.145-0.098-2.051-0.604-2.713-1.525c-0.768-1.068-1.932-3.445-3.488-7.133l-13.861-32.67
	h-1.793L211.24,87.896c-1.096,2.707-1.936,4.461-2.521,5.254c-0.914,1.262-2.119,1.945-3.621,2.047v1.57h12.711v-1.57
	c-1.422-0.021-2.486-0.143-3.197-0.367c-1.197-0.406-1.795-1.059-1.795-1.955c0-0.734,0.273-1.904,0.82-3.516
	c0.268-0.752,0.869-2.371,1.803-4.854h13.885l1.604,3.787c0.348,0.836,0.625,1.551,0.832,2.141c0.322,0.998,0.484,1.74,0.484,2.229
	c0,1.08-0.318,1.752-0.953,2.016c-0.639,0.264-1.967,0.438-3.988,0.52v1.57h55.162l2.543-14.13H283.176z M216.352,82.039
	l5.643-14.356h0.438l5.928,14.356H216.352z M322.906,82.637h-1.832c-1.842,4.806-4.033,8.036-6.57,9.694
	c-2.539,1.662-5.68,2.49-9.422,2.49c-2.084,0-3.484-0.223-4.203-0.668c-0.717-0.449-1.076-1.363-1.076-2.746V61.926
	c0-2.458,0.422-3.999,1.266-4.624c0.846-0.625,2.543-0.978,5.09-1.059v-1.57h-21.684v1.57c1.766,0.102,2.984,0.345,3.658,0.73
	c1.15,0.628,1.727,1.856,1.727,3.681v30.159c0,1.826-0.605,3.064-1.814,3.713c-0.715,0.385-1.902,0.609-3.57,0.67v1.57h35.887
	L322.906,82.637z"/>
<g>
</g>
<g>
</g>
<g>
</g>
<g>
</g>
<g>
</g>
<g>
</g>
<g>
</g>
<g>
</g>
<g>
</g>
<g>
</g>
<g>
</g>
<g>
</g>
<g>
</g>
<g>
</g>
<g>
</g>
</svg>
